<svg xmlns="http://www.w3.org/2000/svg" style="cursor: move;" viewBox="579.53 174.5 480.8 181.65"><g transform="translate(135,-42) scale(1)"><path class="link" style="stroke-width: 0.5px; stroke-opacity: 1; stroke: rgb(80, 80, 80);" marker-end="" d="M480,267.5, 660,227.5"/><path class="link" style="stroke-width: 0.5px; stroke-opacity: 1; stroke: rgb(80, 80, 80);" marker-end="" d="M480,267.5, 660,267.5"/><path class="link" style="stroke-width: 0.5px; stroke-opacity: 1; stroke: rgb(80, 80, 80);" marker-end="" d="M480,267.5, 660,307.5"/><path class="link" style="stroke-width: 0.5px; stroke-opacity: 1; stroke: rgb(80, 80, 80);" marker-end="" d="M480,267.5, 660,347.5"/><path class="link" style="stroke-width: 0.5px; stroke-opacity: 1; stroke: rgb(80, 80, 80);" marker-end="" d="M480,307.5, 660,227.5"/><path class="link" style="stroke-width: 0.5px; stroke-opacity: 1; stroke: rgb(80, 80, 80);" marker-end="" d="M480,307.5, 660,267.5"/><path class="link" style="stroke-width: 0.5px; stroke-opacity: 1; stroke: rgb(80, 80, 80);" marker-end="" d="M480,307.5, 660,307.5"/><path class="link" style="stroke-width: 0.5px; stroke-opacity: 1; stroke: rgb(80, 80, 80);" marker-end="" d="M480,307.5, 660,347.5"/><path class="link" style="stroke-width: 0.5px; stroke-opacity: 1; stroke: rgb(80, 80, 80);" marker-end="" d="M660,227.5, 840,227.5"/><path class="link" style="stroke-width: 0.5px; stroke-opacity: 1; stroke: rgb(80, 80, 80);" marker-end="" d="M660,267.5, 840,227.5"/><path class="link" style="stroke-width: 0.5px; stroke-opacity: 1; stroke: rgb(80, 80, 80);" marker-end="" d="M660,307.5, 840,227.5"/><path class="link" style="stroke-width: 0.5px; stroke-opacity: 1; stroke: rgb(80, 80, 80);" marker-end="" d="M660,347.5, 840,227.5"/><path class="link" style="stroke-width: 0.5px; stroke-opacity: 1; stroke: rgb(80, 80, 80);" marker-end="" d="M660,227.5, 840,267.5"/><path class="link" style="stroke-width: 0.5px; stroke-opacity: 1; stroke: rgb(80, 80, 80);" marker-end="" d="M660,267.5, 840,267.5"/><path class="link" style="stroke-width: 0.5px; stroke-opacity: 1; stroke: rgb(80, 80, 80);" marker-end="" d="M660,307.5, 840,267.5"/><path class="link" style="stroke-width: 0.5px; stroke-opacity: 1; stroke: rgb(80, 80, 80);" marker-end="" d="M660,347.5, 840,267.5"/><path class="link" style="stroke-width: 0.5px; stroke-opacity: 1; stroke: rgb(80, 80, 80);" marker-end="" d="M660,227.5, 840,307.5"/><path class="link" style="stroke-width: 0.5px; stroke-opacity: 1; stroke: rgb(80, 80, 80);" marker-end="" d="M660,267.5, 840,307.5"/><path class="link" style="stroke-width: 0.5px; stroke-opacity: 1; stroke: rgb(80, 80, 80);" marker-end="" d="M660,307.5, 840,307.5"/><path class="link" style="stroke-width: 0.5px; stroke-opacity: 1; stroke: rgb(80, 80, 80);" marker-end="" d="M660,347.5, 840,307.5"/><path class="link" style="stroke-width: 0.5px; stroke-opacity: 1; stroke: rgb(80, 80, 80);" marker-end="" d="M660,227.5, 840,347.5"/><path class="link" style="stroke-width: 0.5px; stroke-opacity: 1; stroke: rgb(80, 80, 80);" marker-end="" d="M660,267.5, 840,347.5"/><path class="link" style="stroke-width: 0.5px; stroke-opacity: 1; stroke: rgb(80, 80, 80);" marker-end="" d="M660,307.5, 840,347.5"/><path class="link" style="stroke-width: 0.5px; stroke-opacity: 1; stroke: rgb(80, 80, 80);" marker-end="" d="M660,347.5, 840,347.5"/><circle r="10" class="node" id="0_0" style="fill: rgb(255, 255, 255); stroke: rgb(51, 51, 51);" cx="480" cy="267.5"/><circle r="10" class="node" id="0_1" style="fill: rgb(255, 255, 255); stroke: rgb(51, 51, 51);" cx="480" cy="307.5"/><circle r="10" class="node" id="1_0" style="fill: rgb(255, 255, 255); stroke: rgb(51, 51, 51);" cx="660" cy="227.5"/><circle r="10" class="node" id="1_1" style="fill: rgb(255, 255, 255); stroke: rgb(51, 51, 51);" cx="660" cy="267.5"/><circle r="10" class="node" id="1_2" style="fill: rgb(255, 255, 255); stroke: rgb(51, 51, 51);" cx="660" cy="307.5"/><circle r="10" class="node" id="1_3" style="fill: rgb(255, 255, 255); stroke: rgb(51, 51, 51);" cx="660" cy="347.5"/><circle r="10" class="node" id="2_0" style="fill: rgb(255, 255, 255); stroke: rgb(51, 51, 51);" cx="840" cy="227.5"/><text class="text" dy=".35em" style="font-size: 12px; font-family: Arial" x="445" y="387.5">Input Layer ∈ ℝ²</text><text class="text" dy=".35em" style="font-size: 12px; font-family: Arial" x="625" y="387.5">Hidden Layer ∈ ℝ⁴</text><text class="text" dy=".35em" style="font-size: 12px; font-family: Arial" x="805" y="387.5">Output Layer ∈ ℝ⁴</text><circle r="10" class="node" id="2_1" style="fill: rgb(255, 255, 255); stroke: rgb(51, 51, 51);" cx="840" cy="267.5"/><circle r="10" class="node" id="2_2" style="fill: rgb(255, 255, 255); stroke: rgb(51, 51, 51);" cx="840" cy="307.5"/><circle r="10" class="node" id="2_3" style="fill: rgb(255, 255, 255); stroke: rgb(51, 51, 51);" cx="840" cy="347.5"/></g><defs><marker id="arrow" viewBox="0 -5 10 10" markerWidth="7" markerHeight="7" orient="auto" refX="40"><path d="M0,-5L10,0L0,5" style="stroke: rgb(80, 80, 80); fill: none;"/></marker></defs></svg>